<svg width="20" height="20" viewBox="0 0 20 20" fill="none" xmlns="http://www.w3.org/2000/svg">
<path d="M10.625 7.4999C10.625 7.15472 10.3451 6.8749 9.99996 6.8749C9.65478 6.8749 9.37496 7.15472 9.37496 7.4999L9.37496 9.37492H7.49996C7.15478 9.37492 6.87496 9.65474 6.87496 9.99992C6.87496 10.3451 7.15478 10.6249 7.49996 10.6249H9.37496V12.4999C9.37496 12.8451 9.65478 13.1249 9.99996 13.1249C10.3451 13.1249 10.625 12.8451 10.625 12.4999L10.625 10.6249H12.5C12.8451 10.6249 13.125 10.3451 13.125 9.99992C13.125 9.65474 12.8451 9.37492 12.5 9.37492H10.625V7.4999Z" fill="white"/>
<path fill-rule="evenodd" clip-rule="evenodd" d="M9.99996 1.04156C5.05241 1.04156 1.04163 5.05235 1.04163 9.9999C1.04163 14.9474 5.05241 18.9582 9.99996 18.9582C14.9475 18.9582 18.9583 14.9474 18.9583 9.9999C18.9583 5.05235 14.9475 1.04156 9.99996 1.04156ZM2.29163 9.9999C2.29163 5.7427 5.74276 2.29156 9.99996 2.29156C14.2572 2.29156 17.7083 5.7427 17.7083 9.9999C17.7083 14.2571 14.2572 17.7082 9.99996 17.7082C5.74276 17.7082 2.29163 14.2571 2.29163 9.9999Z" fill="white"/>
</svg>
