<svg width="16" height="16" viewBox="0 0 16 16" fill="none" xmlns="http://www.w3.org/2000/svg">
<path opacity="0.5" d="M2.30964 13.6903C3.28595 14.6666 4.8573 14.6666 8 14.6666C11.1427 14.6666 12.714 14.6666 13.6904 13.6903C14.6667 12.714 14.6667 11.1427 14.6667 7.99998C14.6667 4.85728 14.6667 3.28593 13.6904 2.30962C12.714 1.33331 11.1427 1.33331 8 1.33331C4.8573 1.33331 3.28595 1.33331 2.30964 2.30962C1.33333 3.28593 1.33333 4.85728 1.33333 7.99998C1.33333 11.1427 1.33333 12.714 2.30964 13.6903Z" fill="#878787"/>
<path fill-rule="evenodd" clip-rule="evenodd" d="M8 4.83331C8.27614 4.83331 8.5 5.05717 8.5 5.33331V7.79287L10.0202 9.31309C10.2155 9.50835 10.2155 9.82494 10.0202 10.0202C9.82496 10.2155 9.50838 10.2155 9.31311 10.0202L7.64645 8.35353C7.55268 8.25977 7.5 8.13259 7.5 7.99998V5.33331C7.5 5.05717 7.72386 4.83331 8 4.83331Z" fill="#878787"/>
</svg>
