<svg width="32" height="32" viewBox="0 0 32 32" fill="none" xmlns="http://www.w3.org/2000/svg">
<path opacity="0.5" d="M14.5252 29.3333H17.4747C22.0701 29.3333 24.3678 29.3333 25.9346 27.9842C27.5013 26.6352 27.8263 24.3769 28.4762 19.8603L28.4762 19.8603L28.8479 17.2772C29.3538 13.7611 29.6068 12.0031 28.8861 10.4999C28.1655 8.9968 26.6317 8.08312 23.5641 6.25575L21.7176 5.15583C18.9319 3.49639 17.539 2.66667 16 2.66667C14.4609 2.66667 13.068 3.49639 10.2823 5.15583L8.43584 6.25575L8.43583 6.25575C5.36821 8.08312 3.83439 8.9968 3.11378 10.4999C2.39317 12.0031 2.64613 13.7611 3.15206 17.2772L3.52374 19.8603C4.17363 24.3769 4.49858 26.6352 6.06533 27.9842C7.63208 29.3333 9.92979 29.3333 14.5252 29.3333Z" fill="#269544"/>
<path d="M12.5955 20.5294C12.1519 20.2005 11.5256 20.2936 11.1967 20.7373C10.8678 21.181 10.9609 21.8072 11.4046 22.1361C12.7011 23.0972 14.2868 23.6661 16.0001 23.6661C17.7134 23.6661 19.299 23.0972 20.5955 22.1361C21.0392 21.8072 21.1323 21.181 20.8034 20.7373C20.4746 20.2936 19.8483 20.2005 19.4046 20.5294C18.4335 21.2492 17.2613 21.6661 16.0001 21.6661C14.7389 21.6661 13.5667 21.2492 12.5955 20.5294Z" fill="#269544"/>
</svg>
