<svg width="32" height="32" viewBox="0 0 32 32" fill="none" xmlns="http://www.w3.org/2000/svg">
<path opacity="0.5" d="M29.3333 16C29.3333 23.3638 23.3638 29.3333 16 29.3333C8.63616 29.3333 2.66663 23.3638 2.66663 16C2.66663 8.6362 8.63616 2.66667 16 2.66667C23.3638 2.66667 29.3333 8.6362 29.3333 16Z" fill="#757575"/>
<path d="M22.4092 25.3483C20.5863 26.6005 18.3787 27.3333 16 27.3333C13.6212 27.3333 11.4136 26.6005 9.59063 25.3482C8.78549 24.7951 8.44141 23.7415 8.90954 22.8842C9.87998 21.107 11.8796 20 15.9999 20C20.1203 20 22.12 21.107 23.0904 22.8843C23.5585 23.7416 23.2144 24.7952 22.4092 25.3483Z" fill="#757575"/>
<path d="M16 16C18.2092 16 20 14.2091 20 12C20 9.79086 18.2092 8 16 8C13.7909 8 12 9.79086 12 12C12 14.2091 13.7909 16 16 16Z" fill="#757575"/>
</svg>
